<svg id="Warstwa_1" data-name="Warstwa 1" xmlns="http://www.w3.org/2000/svg" width="158.19mm" height="38.38mm" viewBox="0 0 448.41 108.8"><defs><style>.cls-1{fill:#c20e1a;}.cls-2{fill:#1c1a1e;}.cls-3{fill:#6f6f6e;}</style></defs><title>Naklejkon_logo_01</title><path class="cls-1" d="M73.85,6.82A3.89,3.89,0,0,0,68,10.16V56.25a11.49,11.49,0,0,1-23,0V42.18a3.89,3.89,0,0,0-7.78,0V56.25a19.27,19.27,0,0,0,38.53,0V17.73a41.15,41.15,0,0,1-34.1,71.69,3.89,3.89,0,0,0-1.37,7.66A49,49,0,0,0,97.85,48.92,49.16,49.16,0,0,0,73.85,6.82Zm-21,34.77V55.67a3.89,3.89,0,0,0,7.78,0V41.6a19.27,19.27,0,0,0-38.53,0V80.11A41.15,41.15,0,0,1,56.19,8.42,3.89,3.89,0,0,0,57.56.76,48.93,48.93,0,0,0,24,91a3.89,3.89,0,0,0,5.88-3.34V41.6a11.49,11.49,0,0,1,23,0Z"/><path class="cls-2" d="M142.33,69.09c-3.8-.26-5.7-2.07-5.7-5.7V39.92c-.26-4.75-2.85-7.08-7.94-7.08s-7.68,2.33-7.77,7.08V69.09H109.27V42.25c0-13,6.56-19.5,19.59-19.5s19.42,6.47,19.33,19.5V69.09Z"/><path class="cls-2" d="M165.19,35.35H153.72c1.38-8.46,7.34-12.6,17.87-12.6,12.6,0,19,4.14,19.25,12.6V50.88c0,12.6-7.59,18.21-19.94,19.07-11,.86-18.56-4.23-18.56-14.33.26-11,8.2-13.9,19.76-15,4.92-.6,7.42-2.07,7.42-4.57-.26-2.59-2.68-3.88-7.42-3.88C168,32.15,165.8,33.19,165.19,35.35Zm14.5,15V46.14a49.69,49.69,0,0,1-9.15,2.76c-4.57.86-6.9,3-6.9,6.39.26,3.63,2.16,5.35,5.78,5.35C175.81,60.63,179.69,56.84,179.69,50.36Z"/><path class="cls-2" d="M207.82,16V41.3L222,25.08h13.81L220,42l16,27.1H222.15l-8.11-15q-2.2-3.88-4.4-3.88a2.09,2.09,0,0,0-1.81,2.24V69.09H196.34V10.41h6A5.64,5.64,0,0,1,207.82,16Z"/><path class="cls-2" d="M249.93,16V69.09H238.46V10.41h6A5.64,5.64,0,0,1,249.93,16Z"/><path class="cls-2" d="M276.77,70.13c-13.81-.43-20.71-8.46-20.71-24s7-23.3,20.88-23.39c14.5,0,21.32,8.89,20.45,26.75H267.88c.43,7,3.45,10.53,9.06,10.53a10.6,10.6,0,0,0,7.42-3.28,5,5,0,0,1,3.88-1.64h8.46C294.21,64.78,288,70.13,276.77,70.13ZM268.06,41.3h17.17c-.69-6-3.54-9.15-8.46-9.15S268.92,35.26,268.06,41.3Z"/><path class="cls-2" d="M299.72,87.3h-2V77.2h2.16c2.07,0,2.85-1.12,2.85-3V23.44h6c3.71,0,5.52,1.81,5.52,5.52V76.17C314.22,84.71,308.79,87.3,299.72,87.3Zm9-76.9c3.8,0,5.61,1.9,5.52,5.61v3.37H302.74v-9Z"/><path class="cls-2" d="M332.17,16V41.3l14.15-16.22h13.81L344.34,42l16,27.1H346.5l-8.11-15q-2.2-3.88-4.4-3.88a2.09,2.09,0,0,0-1.81,2.24V69.09H320.69V10.41h6A5.64,5.64,0,0,1,332.17,16Z"/><path class="cls-2" d="M404,46.48c0,15.71-7,23.65-20.8,23.65s-20.71-7.94-20.71-23.65c0-15.88,6.9-23.73,20.71-23.73S404,30.6,404,46.48Zm-29.86,0c.09,8.89,3.11,13.38,9,13.38s8.8-4.66,8.89-13.72c0-8.89-2.93-13.29-8.8-13.29C377.13,32.84,374.11,37.42,374.11,46.48Z"/><path class="cls-2" d="M442.54,69.09c-3.8-.26-5.7-2.07-5.7-5.7V39.92c-.26-4.75-2.85-7.08-7.94-7.08s-7.68,2.33-7.77,7.08V69.09H409.49V42.25c0-13,6.56-19.5,19.59-19.5s19.42,6.47,19.33,19.5V69.09Z"/><path class="cls-3" d="M114,86.59a5.54,5.54,0,0,1,5-2.75c4.73.17,7.08,3.25,7.08,9.29s-2.75,8.89-8.25,9-8.32-2.62-8.32-8V79h2.25A2,2,0,0,1,114,81.29Zm0,6.34c0,3.59,1.17,5.4,3.72,5.4s3.82-1.81,3.82-5.4c-.1-3.42-1.34-5.1-3.76-5.1S114.12,89.51,114,92.93Z"/><path class="cls-3" d="M131.2,105c2.45,0,3.32-1.21,2.62-3.56l-6-17.35h5.07l3.52,12.31,3.09-10.74a2,2,0,0,1,2.11-1.58h3.12l-7,20.77c-1.07,2.92-2.15,3.93-5.84,3.93a5.83,5.83,0,0,1-1.88-.13V105Z"/><path class="cls-3" d="M172.85,101.86H162.48V81.49A2.42,2.42,0,0,1,164.83,79h8.39c4.29,0,7.15,1.71,7.15,5.77a4.74,4.74,0,0,1-2.75,4.73c2.25.87,3.56,2.35,3.56,5.37C181.17,99.64,177.78,101.86,172.85,101.86ZM172.24,83h-5.17v4.9h5.23c1.85,0,3.36-.57,3.36-2.48S174.36,83,172.24,83Zm.2,8.76h-5.37v6h5.44c2.32,0,3.72-.67,3.72-3S174.86,91.76,172.45,91.76Z"/><path class="cls-3" d="M199.33,93.06c0,6.11-2.72,9.19-8.09,9.19s-8.05-3.09-8.05-9.19,2.68-9.23,8.05-9.23S199.33,86.89,199.33,93.06Zm-11.61,0c0,3.46,1.21,5.2,3.49,5.2s3.42-1.81,3.46-5.33-1.14-5.17-3.42-5.17S187.72,89.54,187.72,93.06Z"/><path class="cls-3" d="M217.48,93.06c0,6.11-2.72,9.19-8.09,9.19s-8.05-3.09-8.05-9.19,2.68-9.23,8.05-9.23S217.48,86.89,217.48,93.06Zm-11.61,0c0,3.46,1.21,5.2,3.49,5.2s3.42-1.81,3.46-5.33-1.14-5.17-3.42-5.17S205.87,89.54,205.87,93.06Z"/><path class="cls-3" d="M224.09,81.22v9.83l5.5-6.31H235l-6.14,6.58L235,101.86h-5.37L226.51,96q-.86-1.51-1.71-1.51a.81.81,0,0,0-.7.87v6.48h-4.46V79h2.32A2.19,2.19,0,0,1,224.09,81.22Z"/><path class="cls-3" d="M240.47,81.22v20.64H236V79h2.31A2.19,2.19,0,0,1,240.47,81.22Z"/><path class="cls-3" d="M250.91,102.26c-5.37-.17-8.05-3.29-8.05-9.33s2.72-9.06,8.12-9.09c5.64,0,8.29,3.46,8,10.4H247.45c.17,2.72,1.34,4.09,3.52,4.09a4.12,4.12,0,0,0,2.89-1.28,2,2,0,0,1,1.51-.64h3.29C257.69,100.18,255.27,102.26,250.91,102.26Zm-3.39-11.21h6.68c-.27-2.35-1.38-3.56-3.29-3.56S247.85,88.7,247.52,91.05Z"/><path class="cls-3" d="M265.94,87.29h-.47v9.83c0,.74.44,1.14,1.31,1.14h1.38v3.39a24.49,24.49,0,0,1-4.7,0c-1.68-.17-2.48-1.21-2.45-3.19V79h2.31a2.25,2.25,0,0,1,2.15,2.25v2.82h2.68v1A2.17,2.17,0,0,1,265.94,87.29Z"/></svg>