<svg id="Warstwa_1" data-name="Warstwa 1" xmlns="http://www.w3.org/2000/svg" width="158.19mm" height="38.38mm" viewBox="0 0 448.41 108.8"><defs><style>.cls-1{fill:#fff;}</style></defs><title>Naklejkon_logo_02</title><path class="cls-1" d="M52.85,41.6V55.67a3.89,3.89,0,0,0,7.78,0V41.6a19.27,19.27,0,0,0-38.53,0V80.11A41.15,41.15,0,0,1,56.19,8.42,3.89,3.89,0,0,0,57.56.76,48.93,48.93,0,0,0,24,91a3.84,3.84,0,0,0,2,.55,3.89,3.89,0,0,0,3.89-3.89V41.6a11.49,11.49,0,1,1,23,0Zm21-34.78A3.89,3.89,0,0,0,68,10.16V56.25a11.49,11.49,0,1,1-23,0V42.18a3.89,3.89,0,0,0-7.78,0V56.25a19.27,19.27,0,0,0,38.53,0V17.74a41.15,41.15,0,0,1-34.1,71.69,3.89,3.89,0,0,0-1.37,7.66A48.95,48.95,0,0,0,97.85,48.92,49.16,49.16,0,0,0,73.85,6.82ZM249.93,16a5.64,5.64,0,0,0-5.52-5.61h-6V69.09h11.48ZM170.89,70c12.34-.86,19.94-6.47,19.94-19.07V35.35c-.26-8.46-6.65-12.6-19.25-12.6-10.53,0-16.48,4.14-17.87,12.6h11.48c.6-2.16,2.85-3.19,6.9-3.19,4.75,0,7.16,1.29,7.42,3.88,0,2.5-2.5,4-7.42,4.57-11.56,1.12-19.5,4.06-19.76,15C152.33,65.73,159.93,70.82,170.89,70Zm-7.25-14.67c0-3.37,2.33-5.52,6.9-6.39a49.88,49.88,0,0,0,9.15-2.76v4.23c0,6.47-3.88,10.27-10.27,10.27C165.8,60.63,163.9,58.91,163.64,55.29ZM128.87,22.75c-13,0-19.59,6.47-19.59,19.5V69.09h11.65V39.92c.09-4.75,2.67-7.08,7.77-7.08s7.68,2.33,7.94,7.08V63.4c0,3.63,1.9,5.44,5.7,5.7h5.87V42.25C148.28,29.22,141.9,22.75,128.87,22.75Zm179.83.69h-6V74.19c0,1.9-.78,3-2.85,3h-2.16V87.3h2c9.06,0,14.5-2.59,14.5-11.13V29C314.22,25.25,312.41,23.44,308.7,23.44Zm0-13h-6v9h11.48V16C314.31,12.3,312.5,10.41,308.7,10.41Zm74.47,12.34c-13.81,0-20.71,7.85-20.71,23.73,0,15.71,6.9,23.65,20.71,23.65S404,62.19,404,46.48C404,30.6,397,22.75,383.17,22.75Zm-.09,37.11c-5.87,0-8.89-4.49-9-13.38,0-9.06,3-13.64,9.06-13.64,5.87,0,8.8,4.4,8.8,13.29C391.89,55.2,389,59.86,383.09,59.86Zm-23-34.78H346.32L332.17,41.3V16a5.64,5.64,0,0,0-5.52-5.61h-6V69.09h11.48V52.44A2.09,2.09,0,0,1,334,50.19q2.2,0,4.4,3.88l8.11,15h13.81l-16-27.1Zm68.95-2.33c-13,0-19.59,6.47-19.59,19.5V69.09h11.65V39.92c.09-4.75,2.68-7.08,7.77-7.08s7.68,2.33,7.94,7.08V63.4c0,3.63,1.9,5.44,5.7,5.7h5.87V42.25C448.5,29.22,442.11,22.75,429.08,22.75Zm-152.14,0c-13.89.09-20.88,7.85-20.88,23.39s6.9,23.56,20.71,24c11.22,0,17.43-5.35,19.94-15h-8.46a5,5,0,0,0-3.88,1.64A10.6,10.6,0,0,1,276.94,60c-5.61,0-8.63-3.54-9.06-10.53H297.4C298.26,31.64,291.44,22.75,276.94,22.75ZM268.05,41.3c.86-6,3.8-9.15,8.72-9.15s7.77,3.11,8.46,9.15ZM235.78,25.08H222L207.82,41.3V16a5.64,5.64,0,0,0-5.52-5.61h-6V69.09h11.48V52.44a2.09,2.09,0,0,1,1.81-2.24q2.2,0,4.4,3.88l8.11,15H236L220,42ZM119,83.84a5.54,5.54,0,0,0-5,2.75v-5.3A2,2,0,0,0,111.77,79h-2.25V94.17c0,5.34,2.79,8,8.32,8s8.25-3.09,8.25-9S123.75,84,119,83.84Zm-1.31,14.5c-2.55,0-3.76-1.81-3.72-5.4.13-3.42,1.38-5.1,3.79-5.1s3.66,1.68,3.76,5.1C121.54,96.52,120.26,98.33,117.71,98.33Zm59.9-8.79a4.74,4.74,0,0,0,2.75-4.73c0-4.06-2.85-5.77-7.15-5.77h-8.39a2.42,2.42,0,0,0-2.35,2.45v20.37h10.37c4.93,0,8.32-2.21,8.32-6.95C181.17,91.89,179.86,90.41,177.61,89.54ZM167.08,83h5.17c2.12,0,3.42.5,3.42,2.42s-1.51,2.48-3.36,2.48h-5.23Zm5.44,14.73h-5.44v-6h5.37c2.42,0,3.79.67,3.79,3S174.83,97.73,172.51,97.73Zm18.73-13.89c-5.37,0-8.05,3.05-8.05,9.23s2.69,9.19,8.05,9.19,8.09-3.09,8.09-9.19S196.61,83.84,191.24,83.84Zm0,14.43c-2.28,0-3.46-1.74-3.49-5.2s1.17-5.3,3.52-5.3,3.42,1.71,3.42,5.17S193.49,98.27,191.21,98.27ZM235,84.74H229.6l-5.5,6.31V81.22A2.19,2.19,0,0,0,221.95,79h-2.32v22.82h4.46V95.38a.81.81,0,0,1,.71-.87q.86,0,1.71,1.51l3.15,5.84H235l-6.21-10.54Zm-95.51.94-3.09,10.74-3.52-12.31h-5.07l6,17.35c.7,2.35-.17,3.56-2.62,3.56H130v3.66a5.8,5.8,0,0,0,1.88.13c3.69,0,4.77-1,5.84-3.93l7-20.77h-3.12A2,2,0,0,0,139.46,85.68ZM251,83.84c-5.4,0-8.12,3.05-8.12,9.09s2.69,9.16,8.05,9.33c4.36,0,6.78-2.08,7.75-5.84h-3.29a2,2,0,0,0-1.51.64A4.12,4.12,0,0,1,251,98.33c-2.18,0-3.36-1.38-3.52-4.09h11.47Q259.43,83.82,251,83.84Zm-3.46,7.21c.34-2.35,1.48-3.56,3.39-3.56s3,1.21,3.29,3.56Zm18-9.77A2.25,2.25,0,0,0,263.32,79H261V98.43c0,2,.77,3,2.45,3.19a24.62,24.62,0,0,0,4.7,0V98.27h-1.38c-.87,0-1.31-.4-1.31-1.14V87.29h.47a2.17,2.17,0,0,0,2.21-2.21v-1h-2.69ZM238.32,79H236v22.82h4.46V81.22A2.19,2.19,0,0,0,238.32,79Zm-28.93,4.8c-5.37,0-8.05,3.05-8.05,9.23s2.68,9.19,8.05,9.19,8.09-3.09,8.09-9.19S214.76,83.84,209.39,83.84Zm0,14.43c-2.28,0-3.46-1.74-3.49-5.2s1.17-5.3,3.52-5.3,3.42,1.71,3.42,5.17S211.64,98.27,209.36,98.27Z"/></svg>