<svg id="Layer_1" data-name="Layer 1" xmlns="http://www.w3.org/2000/svg" width="91.37mm" height="26.11mm" viewBox="0 0 259 74"><defs><style>.cls-1,.cls-3{fill:#222221;}.cls-2{fill:#fff;}.cls-3{font-size:36.38px;font-family:OpenSans-Extrabold, Open Sans;font-weight:700;}</style></defs><title>Vlepy_PL_logo</title><rect class="cls-1" width="74" height="74"/><rect class="cls-1" x="74" width="185" height="74"/><rect class="cls-2" x="74" y="2.49" width="182.15" height="69.06"/><path class="cls-2" d="M33.58,20.65A5.34,5.34,0,0,1,32,14.82c.64-2.12,2.4-2.58,2.92-4.44.26-.93.4-2.66-.12-3.33.64.29,2.86,1.67,3.12,3.83s-.37,2.67-.45,3.47c-.1,1,.39,1.89,1.39,1.89s1.89-.76,1.41-3.34a5.05,5.05,0,0,1,2.28,4.18c.06,2.15-.91,3.47-2.85,4.47A5.72,5.72,0,0,1,33.58,20.65Z"/><path class="cls-2" d="M33.63,51l-8.1-25.26h6.26l3.07,10.68c.86,3,1.65,5.88,2.25,9h.11c.64-3,1.42-6,2.29-8.92l3.22-10.79h6.07L40.3,51Z"/><path class="cls-2" d="M24.67,17.49l1-.44,1.06-.35-1,.42-1,.51a1.92,1.92,0,0,0,.64,0l.34-.07.17-.06.18-.06a2.29,2.29,0,0,0,1.18-.95,2.08,2.08,0,0,0-1.49,0l-.18.07-.17.1a2.59,2.59,0,0,0-.3.23A2.06,2.06,0,0,0,24.67,17.49Z"/><path class="cls-2" d="M15.47,35.8c-.18.34-.37.69-.55,1.06s-.33.74-.48,1.12-.3.78-.42,1.18a2.63,2.63,0,0,0,1.06-.63,4.53,4.53,0,0,0,.86-1.18,6.45,6.45,0,0,0,.58-1.64c0-.14,0-.29.07-.43s0-.28.06-.43a5.14,5.14,0,0,0,0-.86,2.05,2.05,0,0,0-1.28.21,2.67,2.67,0,0,0-.61.44,3.47,3.47,0,0,0-.29.31,2.2,2.2,0,0,0-.26.37A5.24,5.24,0,0,0,13.67,37a6.83,6.83,0,0,0-.06.93,7.51,7.51,0,0,0,.1.92c.17-.38.33-.75.51-1.11s.37-.71.57-1l.62-1,.31-.46.35-.44-.32.49Z"/><path class="cls-2" d="M13.9,32.73c0,.14-.06.28-.08.42a2.35,2.35,0,0,0,0,.43c.1-.15.23-.3.35-.44l.36-.42c.24-.28.46-.55.71-.8l.76-.73.38-.35.4-.32c-.13.12-.26.24-.38.37l-.35.39c-.24.27-.48.54-.72.82l-.66.89-.33.47-.3.49a2.17,2.17,0,0,0,1.07-.31,3.59,3.59,0,0,0,1-.85,6.19,6.19,0,0,0,1.36-2.88,1.86,1.86,0,0,0-1.19-.11,2.39,2.39,0,0,0-.64.26,2.52,2.52,0,0,0-.63.49,4.59,4.59,0,0,0-.87,1.36A6.6,6.6,0,0,0,13.9,32.73Z"/><path class="cls-2" d="M21.1,23.29a1.71,1.71,0,0,0-.89-.53,2.19,2.19,0,0,0-1.2.12,3.22,3.22,0,0,0-.59.28,4.28,4.28,0,0,0-.52.42A3.78,3.78,0,0,0,17,24.69a14.48,14.48,0,0,1,1.65-.7l.4-.15.42-.12.82-.22a13.75,13.75,0,0,0-1.64.67l-.82.41c-.27.14-.53.31-.8.47a1.8,1.8,0,0,0,.92.21,2.6,2.6,0,0,0,.52-.07,3.14,3.14,0,0,0,.56-.17A4.87,4.87,0,0,0,21.1,23.29Z"/><path class="cls-2" d="M24.82,19.7l.26-.06.27-.06a3.12,3.12,0,0,0,1-.47,1.59,1.59,0,0,0-1.46-1,2.21,2.21,0,0,0-.52,0,3.33,3.33,0,0,0-.51.14,3.44,3.44,0,0,0-1,.52h.46l1,.05.51,0,.45.07.43.07-.45,0-.46,0h-.53l-1,0c-.14,0-.25,0-.33,0l-.13,0a1.48,1.48,0,0,0,.61.47,2.25,2.25,0,0,0,.88.19A2.65,2.65,0,0,0,24.82,19.7Z"/><path class="cls-2" d="M23.6,20.89a1.77,1.77,0,0,0-1.8-.78,3.43,3.43,0,0,0-1.11.41,2.35,2.35,0,0,0-.5.37,4.72,4.72,0,0,0-.44.45,12.57,12.57,0,0,1,1.58-.29l.78-.08.38,0h.39l-.41,0-.4.06-.82.13-.42.07-.41.1-.83.22.83-.22.41-.1.42-.07.82-.13.4-.06.41,0a15.79,15.79,0,0,0-3.17.73,2,2,0,0,0,1.77.36,3.27,3.27,0,0,0,1.14-.4l.26-.16.26-.17A3.55,3.55,0,0,0,23.6,20.89Z"/><path class="cls-2" d="M17,27.52a4.3,4.3,0,0,0-.4.3l-.77.65-.39.34-.36.37a1.89,1.89,0,0,0,1,0,3.35,3.35,0,0,0,1.1-.53,5,5,0,0,0,.55-.48,4.18,4.18,0,0,0,.5-.55c.15-.19.27-.41.41-.62a4.38,4.38,0,0,0,.34-.66A1.82,1.82,0,0,0,18,26a2.17,2.17,0,0,0-1.27.4,4,4,0,0,0-.57.45l-.26.27a3.08,3.08,0,0,0-.22.31,5.81,5.81,0,0,0-.38.68,3.43,3.43,0,0,0-.27.74c.24-.22.54-.42.8-.61l.8-.56c.27-.17.56-.33.83-.49s.54-.31.82-.44c-.28.16-.53.35-.8.53Z"/><path class="cls-2" d="M30,55.06a4.14,4.14,0,0,0,.8.82,5,5,0,0,0,1,.57c.2.08.43.14.64.2l.66.16a5.46,5.46,0,0,1,1.34.49c.22.1.42.24.63.36s.4.27.58.43c0,0,0-.12-.14-.32A6,6,0,0,0,35,57a5.34,5.34,0,0,0-.9-1,5.43,5.43,0,0,0-.62-.45l-.34-.21-.32-.17-.67-.35L32,54.7l-.09,0-.05,0-.2-.17c-.26-.23-.5-.42-.69-.62l-.46-.46-.17-.18.18.16.5.42c.21.17.47.35.75.56l.11.08,0,0,0,0,.09,0,.37.16.74.31a6,6,0,0,1,1.46.9,3.27,3.27,0,0,1,.3.27c.09.09.18.18.26.27a6.2,6.2,0,0,1,.43.55,7,7,0,0,1,.51.89l.15.35a2.33,2.33,0,0,0,.31-.87,3,3,0,0,0-.07-1.12,4.43,4.43,0,0,0-.22-.63,4.66,4.66,0,0,0-.37-.65,5.2,5.2,0,0,0-.54-.64,5,5,0,0,0-.72-.57l-.47-.28-.51-.22-.13-.05-.11,0L33.2,53l-.48-.13-.49-.12L32,52.74l-.12-.05a4.45,4.45,0,0,0-.48-.16,7.29,7.29,0,0,0-2-.31,3.71,3.71,0,0,0,.11,1.92A3.79,3.79,0,0,0,30,55.06Z"/><path class="cls-2" d="M24.45,50.32a3.56,3.56,0,0,0,.12,3.76,5.14,5.14,0,0,0,3.56,2.34A17.13,17.13,0,0,1,25,51.51c.22.42.47.82.72,1.23s.55.8.85,1.18.63.76,1,1.14.71.73,1.1,1.06a5.15,5.15,0,0,0-1.09-3.31A7.43,7.43,0,0,0,24.45,50.32Z"/><path class="cls-2" d="M16.31,43.5a5.13,5.13,0,0,0,.34-.68,5.77,5.77,0,0,0,.24-.78,7.55,7.55,0,0,0-.07-3.64,2.3,2.3,0,0,0-1.29.58,3.2,3.2,0,0,0-.9,1.49A5.36,5.36,0,0,0,15,44.25a18.4,18.4,0,0,1,1.4-4.83,18.68,18.68,0,0,0-1,5.06A2.89,2.89,0,0,0,16.31,43.5Z"/><path class="cls-2" d="M18.27,49.49a4.35,4.35,0,0,0,.86-3,7.71,7.71,0,0,0-1-3.66,3,3,0,0,0-1.71,2.81,5.52,5.52,0,0,0,1.4,3.75,20.49,20.49,0,0,1-.14-2.77A18.13,18.13,0,0,1,17.9,44,19,19,0,0,0,18.27,49.49Z"/><path class="cls-2" d="M22.05,52.29c.21.43.42.9.67,1.33a4.85,4.85,0,0,0,0-3.32A7.73,7.73,0,0,0,20.62,47a3,3,0,0,0-.91,1.41,3.83,3.83,0,0,0,0,2,5.42,5.42,0,0,0,2.52,3.3,19.2,19.2,0,0,1-1-2.75c-.13-.45-.21-.92-.31-1.36l-.11-.68c0-.22-.06-.45-.08-.67a17.2,17.2,0,0,0,.75,2.71C21.66,51.39,21.86,51.83,22.05,52.29Z"/><path class="cls-2" d="M13.92,45.12a21.62,21.62,0,0,1-3.49-4.77,20.55,20.55,0,0,0,3.63,4.28,11.85,11.85,0,0,0-1.63-3.73,5.36,5.36,0,0,0-1.31-1.38,2.19,2.19,0,0,0-1.38-.44,7.43,7.43,0,0,0,1.45,4.83A2.7,2.7,0,0,0,13.92,45.12Z"/><path class="cls-2" d="M21.6,55.5c-.52-.08-1-.2-1.55-.33s-1-.29-1.55-.48a20,20,0,0,1-3.08-1.38c.25.12.5.22.76.32l.75.29c.52.17,1,.34,1.52.47a18.79,18.79,0,0,0,3,.55,13.08,13.08,0,0,0-3.77-2.44,5.72,5.72,0,0,0-2.07-.46,2.43,2.43,0,0,0-1.58.49c.12.22.25.43.38.64s.29.41.45.61a8.23,8.23,0,0,0,1,1.08A7.78,7.78,0,0,0,17,55.7a5.93,5.93,0,0,0,1.25.53,4.51,4.51,0,0,0,1.07.18,3.48,3.48,0,0,0,.92-.09A2.43,2.43,0,0,0,21.6,55.5Z"/><path class="cls-2" d="M28.07,58.64c-.55.12-1.1.19-1.66.27s-1.14.11-1.72.11-1.17,0-1.77,0-1.2-.11-1.8-.22a19,19,0,0,0,6.61-.61,14.31,14.31,0,0,0-4.61-1c-1.7-.05-3,.37-3.7,1.35a8.49,8.49,0,0,0,1.25,1,8,8,0,0,0,1.4.72,7.68,7.68,0,0,0,1.46.41,6.18,6.18,0,0,0,1.43.07A3.33,3.33,0,0,0,28.07,58.64Z"/><path class="cls-2" d="M16.86,50.72a20.23,20.23,0,0,1-4.92-3.81,20.92,20.92,0,0,0,2.41,1.87,18.57,18.57,0,0,0,2.52,1.39,12.76,12.76,0,0,0-2.73-3.31c-1.18-1-2.34-1.4-3.27-1a7.6,7.6,0,0,0,2.85,4.54A2.78,2.78,0,0,0,16.86,50.72Z"/><path class="cls-2" d="M37.69,62.84c0-.12-.07-.31-.14-.55l-.12-.4c0-.15-.1-.3-.16-.47s-.14-.35-.21-.54-.08-.19-.13-.29l-.15-.33a8,8,0,0,0-.86-1.33,5.06,5.06,0,0,0-1.37-1.19c-.14-.08-.29-.14-.44-.22s-.31-.11-.47-.15a4.45,4.45,0,0,0-1-.11h-.52l-.51,0c-.32,0-.65,0-1-.08a17.92,17.92,0,0,1-4.22-1,18.62,18.62,0,0,1-4.34-2.3,20.77,20.77,0,0,1-2-1.68,20.44,20.44,0,0,1-3.47-4.33l-.19-.3-.17-.31c-.11-.21-.23-.42-.34-.63-.21-.43-.43-.86-.61-1.31A22.13,22.13,0,0,1,13.6,34.08l.07-.68.12-.67.12-.66.06-.33c0-.11.06-.21.08-.32l.33-1.27c.13-.41.28-.81.41-1.21a20.94,20.94,0,0,1,2.08-4.21,20,20,0,0,1,4.62-5.12c.32-.26.63-.46.89-.64s.48-.35.67-.46l.58-.34v0l-.59.33c-.2.1-.41.27-.68.44s-.58.38-.91.62a20,20,0,0,0-4.77,5,21.18,21.18,0,0,0-2.2,4.22c-.15.4-.3.81-.45,1.22l-.37,1.29c0,.11-.06.22-.09.33l-.07.33-.14.68-.14.68-.09.7a22.85,22.85,0,0,0,1.44,11.62c.18.47.4.92.6,1.37.11.22.23.44.34.67l.17.33.19.32a21.46,21.46,0,0,0,3.53,4.61,21.85,21.85,0,0,0,2.1,1.82A19.72,19.72,0,0,0,26,57.29a19,19,0,0,0,4.46,1.16c.35.05.7.07,1,.11l.47,0,.44,0a3.58,3.58,0,0,1,.8.1l.36.13c.11.06.23.11.33.18a3.85,3.85,0,0,1,1,1,6.42,6.42,0,0,1,.63,1l.11.24c0,.08.08.17.1.25s.13.32.17.47.09.28.13.41l.09.35c.06.21.08.37.11.48l0,.17L37.74,63Z"/><path class="cls-2" d="M30.12,61.75c.33-.11.7-.29,1.09-.45l.3-.13.07,0,0,0,.09-.08.37-.31.2-.16.17-.15a2.65,2.65,0,0,1,.37-.26,2.59,2.59,0,0,1,.75-.29,2.82,2.82,0,0,1,.59-.06h.23a1.8,1.8,0,0,0-1.75-.72,5.06,5.06,0,0,0-.51.11l-.5.16a10,10,0,0,0-1.19.38c-1.71.65-2.91,1.59-3.21,2.82a8.37,8.37,0,0,0,3.26.6c1.8,0,3.7-2.57,3.9-2.76l-.21,0a2.7,2.7,0,0,0-.55,0,2.58,2.58,0,0,0-.35,0,2.51,2.51,0,0,0-.37.12l-.18.08-.18.11-.17.12a1.92,1.92,0,0,1-.17.13l-.39.27-.18.13,0,0,0,0h0l-.16.06c-.42.14-.83.29-1.17.38l-.86.23-.33.08.31-.1Z"/><path class="cls-2" d="M20.84,17.64l-.21.41-.19.43-.36.85a17.27,17.27,0,0,0-.6,1.7A4.82,4.82,0,0,0,20,20.6l.44-.48A4.55,4.55,0,0,0,21.1,19a2.43,2.43,0,0,0,.19-2.18,5.34,5.34,0,0,0-.66.38l-.31.23c-.1.08-.19.18-.28.27A4.74,4.74,0,0,0,19.17,19a2.22,2.22,0,0,0,0,2.05A21.89,21.89,0,0,1,20.84,17.64Z"/><path class="cls-2" d="M16.34,24.49c.06-.34.11-.69.19-1l.26-1a19.71,19.71,0,0,1,.65-2.06q-.14.51-.27,1c0,.17-.09.33-.12.5L17,22.4a18.25,18.25,0,0,0-.28,2,9.43,9.43,0,0,0,.8-1.2,5.54,5.54,0,0,0,.3-.67,5.46,5.46,0,0,0,.24-.67,3.72,3.72,0,0,0,.15-1.41,1.8,1.8,0,0,0-.38-1,5,5,0,0,0-1.87,2.85,3.79,3.79,0,0,0-.09.69,2.71,2.71,0,0,0,.06.62A1.85,1.85,0,0,0,16.34,24.49Z"/><path class="cls-2" d="M22.51,18.33c0-.07.11-.19.2-.31l.66-.92.37-.5.34-.41.35-.4-.3.41-.3.42c-.11.16-.21.33-.32.5l-.56.94-.18.3-.06.12a4.69,4.69,0,0,0,.95-.6,4.12,4.12,0,0,0,.41-.39c.13-.14.26-.27.37-.42a2.11,2.11,0,0,0,.48-1.9,4.65,4.65,0,0,0-1.22.56l-.28.19-.25.23a3.75,3.75,0,0,0-.42.51,2.42,2.42,0,0,0-.41.94,1.61,1.61,0,0,0,.08.84Z"/><path class="cls-2" d="M10.49,37.51a3.56,3.56,0,0,0,1,1.35,2,2,0,0,0,1.16.46c-.22-.39-.41-.79-.61-1.2s-.37-.83-.55-1.26S11.17,36,11,35.54l-.23-.68c-.06-.23-.12-.46-.18-.7l.22.65c.08.21.18.43.26.64q.27.63.54,1.22c.19.4.4.78.6,1.16s.44.74.66,1.09a8.15,8.15,0,0,0,0-1,8.67,8.67,0,0,0-.11-1,8,8,0,0,0-.47-1.84l-.19-.46q-.1-.22-.2-.41a3.91,3.91,0,0,0-.48-.69,2.17,2.17,0,0,0-1.17-.74A9.85,9.85,0,0,0,10,34c0,.2,0,.41-.05.61a5.34,5.34,0,0,0,0,.61A6.3,6.3,0,0,0,10.49,37.51Z"/><path class="cls-2" d="M11.86,33.06a2,2,0,0,0,1,.7c-.06-.2-.11-.4-.17-.61l-.13-.61q-.12-.62-.24-1.26c-.06-.42-.1-.85-.15-1.29l-.07-.66c0-.22,0-.44,0-.67,0,.21,0,.42.07.63l.11.63q.11.62.23,1.22c.09.4.21.8.31,1.18l.17.57c.06.19.11.37.18.56,0-.14.06-.29.1-.43s.06-.29.09-.44a7.34,7.34,0,0,0,.09-.89,7.51,7.51,0,0,0,0-1.75,8.44,8.44,0,0,0-.18-.88,3.69,3.69,0,0,0-.29-.73,2.05,2.05,0,0,0-.9-.93,6.44,6.44,0,0,0-.71,4.19A3.64,3.64,0,0,0,11.86,33.06Z"/><path class="cls-2" d="M14.13,28.75l0-.58c0-.19,0-.38,0-.57l0-1.17c0-.2,0-.4,0-.59l.06-.59c0-.39.09-.81.16-1.2,0,.39,0,.78-.06,1.16s0,.76,0,1.14,0,.76,0,1.13,0,.73.09,1.09c.11-.24.23-.48.33-.73a6.45,6.45,0,0,0,.26-.77c0-.13.06-.27.1-.4s.07-.26.09-.39a5.73,5.73,0,0,0,.11-.79A4.73,4.73,0,0,0,15.22,24a2,2,0,0,0-.63-1,7.62,7.62,0,0,0-.58.79,5.47,5.47,0,0,0-.44.89,7.06,7.06,0,0,0-.3.93,5,5,0,0,0-.1.95,3.34,3.34,0,0,0,.25,1.42A1.91,1.91,0,0,0,14.13,28.75Z"/><path class="cls-2" d="M49.67,17.49l-1-.44-1.06-.35,1,.42,1,.51a1.92,1.92,0,0,1-.64,0l-.34-.07-.17-.06-.18-.06a2.29,2.29,0,0,1-1.18-.95,2.08,2.08,0,0,1,1.49,0l.18.07.17.1a2.59,2.59,0,0,1,.3.23A2.06,2.06,0,0,1,49.67,17.49Z"/><path class="cls-2" d="M58.87,35.8c.18.34.37.69.55,1.06s.33.74.48,1.12.3.78.42,1.18a2.63,2.63,0,0,1-1.06-.63,4.53,4.53,0,0,1-.86-1.18,6.45,6.45,0,0,1-.58-1.64c0-.14,0-.29-.07-.43s0-.28-.06-.43a5.14,5.14,0,0,1,0-.86,2.05,2.05,0,0,1,1.28.21,2.67,2.67,0,0,1,.61.44,3.47,3.47,0,0,1,.29.31,2.2,2.2,0,0,1,.26.37A5.24,5.24,0,0,1,60.67,37a6.83,6.83,0,0,1,.06.93,7.51,7.51,0,0,1-.1.92c-.17-.38-.33-.75-.51-1.11s-.37-.71-.57-1l-.62-1-.31-.46-.35-.44.32.49Z"/><path class="cls-2" d="M60.44,32.73c0,.14.06.28.08.42a2.35,2.35,0,0,1,0,.43c-.1-.15-.23-.3-.35-.44l-.36-.42c-.24-.28-.46-.55-.71-.8l-.76-.73L58,30.84l-.4-.32c.13.12.26.24.38.37l.35.39c.24.27.48.54.72.82l.66.89.33.47.3.49a2.17,2.17,0,0,1-1.07-.31,3.59,3.59,0,0,1-1-.85,6.19,6.19,0,0,1-1.36-2.88,1.86,1.86,0,0,1,1.19-.11,2.39,2.39,0,0,1,.64.26,2.52,2.52,0,0,1,.63.49,4.59,4.59,0,0,1,.87,1.36A6.6,6.6,0,0,1,60.44,32.73Z"/><path class="cls-2" d="M53.24,23.29a1.71,1.71,0,0,1,.89-.53,2.19,2.19,0,0,1,1.2.12,3.22,3.22,0,0,1,.59.28,4.28,4.28,0,0,1,.52.42,3.78,3.78,0,0,1,.85,1.11,14.48,14.48,0,0,0-1.65-.7l-.4-.15-.42-.12L54,23.49a13.75,13.75,0,0,1,1.64.67l.82.41c.27.14.53.31.8.47a1.8,1.8,0,0,1-.92.21,2.6,2.6,0,0,1-.52-.07,3.14,3.14,0,0,1-.56-.17A4.87,4.87,0,0,1,53.24,23.29Z"/><path class="cls-2" d="M49.52,19.7l-.26-.06L49,19.58a3.12,3.12,0,0,1-1-.47,1.59,1.59,0,0,1,1.46-1,2.21,2.21,0,0,1,.52,0,3.33,3.33,0,0,1,.51.14,3.44,3.44,0,0,1,1,.52H51l-1,.05-.51,0-.45.07-.43.07.45,0,.46,0h.53l1,0c.14,0,.25,0,.33,0l.13,0a1.48,1.48,0,0,1-.61.47,2.25,2.25,0,0,1-.88.19A2.65,2.65,0,0,1,49.52,19.7Z"/><path class="cls-2" d="M50.74,20.89a1.77,1.77,0,0,1,1.8-.78,3.43,3.43,0,0,1,1.11.41,2.35,2.35,0,0,1,.5.37,4.72,4.72,0,0,1,.44.45A12.57,12.57,0,0,0,53,21.05L52.23,21l-.38,0h-.39l.41,0,.4.06.82.13.42.07.41.1.83.22-.83-.22-.41-.1-.42-.07L52.27,21l-.4-.06-.41,0a15.78,15.78,0,0,1,3.17.73,2,2,0,0,1-1.77.36,3.27,3.27,0,0,1-1.14-.4l-.26-.16-.26-.17A3.55,3.55,0,0,1,50.74,20.89Z"/><path class="cls-2" d="M57.32,27.52a4.3,4.3,0,0,1,.4.3l.77.65.39.34.36.37a1.89,1.89,0,0,1-1,0,3.35,3.35,0,0,1-1.1-.53,5,5,0,0,1-.55-.48,4.18,4.18,0,0,1-.5-.55c-.15-.19-.27-.41-.41-.62a4.38,4.38,0,0,1-.34-.66A1.82,1.82,0,0,1,56.39,26a2.17,2.17,0,0,1,1.27.4,4,4,0,0,1,.57.45l.26.27a3.08,3.08,0,0,1,.22.31,5.81,5.81,0,0,1,.38.68,3.43,3.43,0,0,1,.27.74c-.24-.22-.54-.42-.8-.61l-.8-.56c-.27-.17-.56-.33-.83-.49s-.54-.31-.82-.44c.28.16.53.35.8.53Z"/><path class="cls-2" d="M44.32,55.06a4.14,4.14,0,0,1-.8.82,5,5,0,0,1-1,.57c-.2.08-.43.14-.64.2l-.66.16a5.46,5.46,0,0,0-1.34.49c-.22.1-.42.24-.63.36s-.4.27-.58.43c0,0,0-.12.14-.32a6,6,0,0,1,.47-.81,5.34,5.34,0,0,1,.9-1,5.43,5.43,0,0,1,.62-.45l.34-.21.32-.17.67-.35.17-.09.09,0,.05,0,.2-.17c.26-.23.5-.42.69-.62l.46-.46.17-.18-.18.16-.5.42c-.21.17-.47.35-.75.56l-.11.08,0,0,0,0-.09,0-.37.16-.74.31a6,6,0,0,0-1.46.9,3.27,3.27,0,0,0-.3.27c-.09.09-.18.18-.26.27a6.21,6.21,0,0,0-.43.55,7,7,0,0,0-.51.89l-.15.35a2.33,2.33,0,0,1-.31-.87,3,3,0,0,1,.07-1.12,4.43,4.43,0,0,1,.22-.63,4.67,4.67,0,0,1,.37-.65,5.2,5.2,0,0,1,.54-.64,5,5,0,0,1,.72-.57l.47-.28.51-.22.13-.05.11,0,.23-.07.48-.13.49-.12.25-.05.12-.05a4.45,4.45,0,0,1,.48-.16,7.29,7.29,0,0,1,2-.31,3.71,3.71,0,0,1-.11,1.92A3.79,3.79,0,0,1,44.32,55.06Z"/><path class="cls-2" d="M49.9,50.32a3.56,3.56,0,0,1-.12,3.76,5.14,5.14,0,0,1-3.56,2.34,17.13,17.13,0,0,0,3.17-4.9c-.22.42-.47.82-.72,1.23s-.55.8-.85,1.18-.63.76-1,1.14-.71.73-1.1,1.06a5.15,5.15,0,0,1,1.09-3.31A7.43,7.43,0,0,1,49.9,50.32Z"/><path class="cls-2" d="M58,43.5a5.13,5.13,0,0,1-.34-.68,5.77,5.77,0,0,1-.24-.78,7.55,7.55,0,0,1,.07-3.64A2.3,2.3,0,0,1,58.8,39a3.2,3.2,0,0,1,.9,1.49,5.36,5.36,0,0,1-.34,3.79A18.4,18.4,0,0,0,58,39.41a18.68,18.68,0,0,1,1,5.06A2.89,2.89,0,0,1,58,43.5Z"/><path class="cls-2" d="M56.07,49.49a4.35,4.35,0,0,1-.86-3,7.71,7.71,0,0,1,1-3.66A3,3,0,0,1,58,45.65a5.52,5.52,0,0,1-1.4,3.75,20.49,20.49,0,0,0,.14-2.77A18.13,18.13,0,0,0,56.44,44,19,19,0,0,1,56.07,49.49Z"/><path class="cls-2" d="M52.29,52.29c-.21.43-.42.9-.67,1.33a4.85,4.85,0,0,1,0-3.32A7.73,7.73,0,0,1,53.72,47a3,3,0,0,1,.91,1.41,3.83,3.83,0,0,1,0,2,5.42,5.42,0,0,1-2.52,3.3,19.2,19.2,0,0,0,1-2.75c.13-.45.21-.92.31-1.36l.11-.68c0-.22.06-.45.08-.67a17.2,17.2,0,0,1-.75,2.71C52.68,51.39,52.48,51.83,52.29,52.29Z"/><path class="cls-2" d="M60.42,45.12a21.62,21.62,0,0,0,3.49-4.77,20.55,20.55,0,0,1-3.63,4.28A11.84,11.84,0,0,1,61.9,40.9a5.36,5.36,0,0,1,1.31-1.38,2.19,2.19,0,0,1,1.38-.44,7.43,7.43,0,0,1-1.45,4.83A2.7,2.7,0,0,1,60.42,45.12Z"/><path class="cls-2" d="M52.74,55.5c.52-.08,1-.2,1.55-.33s1-.29,1.55-.48a20,20,0,0,0,3.08-1.38c-.25.12-.5.22-.76.32l-.75.29c-.52.17-1,.34-1.52.47a18.79,18.79,0,0,1-3,.55,13.08,13.08,0,0,1,3.77-2.44,5.72,5.72,0,0,1,2.07-.46,2.43,2.43,0,0,1,1.58.49c-.12.22-.25.43-.38.64s-.29.41-.45.61a8.23,8.23,0,0,1-1,1.08,7.78,7.78,0,0,1-1.17.83,5.93,5.93,0,0,1-1.25.53,4.51,4.51,0,0,1-1.07.18,3.48,3.48,0,0,1-.92-.09A2.43,2.43,0,0,1,52.74,55.5Z"/><path class="cls-2" d="M46.27,58.64c.55.12,1.1.19,1.66.27s1.14.11,1.72.11,1.17,0,1.77,0,1.2-.11,1.8-.22a19,19,0,0,1-6.61-.61,14.31,14.31,0,0,1,4.61-1c1.7-.05,3,.37,3.7,1.35a8.49,8.49,0,0,1-1.25,1,8,8,0,0,1-1.4.72,7.68,7.68,0,0,1-1.46.41,6.18,6.18,0,0,1-1.43.07A3.33,3.33,0,0,1,46.27,58.64Z"/><path class="cls-2" d="M57.48,50.72a20.23,20.23,0,0,0,4.92-3.81A20.92,20.92,0,0,1,60,48.78a18.57,18.57,0,0,1-2.52,1.39,12.76,12.76,0,0,1,2.73-3.31c1.18-1,2.34-1.4,3.27-1a7.6,7.6,0,0,1-2.85,4.54A2.78,2.78,0,0,1,57.48,50.72Z"/><path class="cls-2" d="M36.65,62.84c0-.12.07-.31.14-.55l.12-.4c0-.15.1-.3.16-.47s.14-.35.21-.54.08-.19.13-.29l.15-.33a8,8,0,0,1,.86-1.33,5.06,5.06,0,0,1,1.37-1.19c.14-.08.29-.14.44-.22s.31-.11.47-.15a4.45,4.45,0,0,1,1-.11h.52l.51,0c.32,0,.65,0,1-.08a17.92,17.92,0,0,0,4.22-1,18.62,18.62,0,0,0,4.34-2.3,20.77,20.77,0,0,0,2-1.68,20.44,20.44,0,0,0,3.47-4.33l.19-.3.17-.31c.11-.21.23-.42.34-.63.21-.43.43-.86.61-1.31a22.13,22.13,0,0,0,1.63-11.23l-.07-.68-.12-.67-.12-.66-.06-.33c0-.11-.06-.21-.08-.32L60,30.14c-.13-.41-.28-.81-.41-1.21a20.94,20.94,0,0,0-2.08-4.21,20,20,0,0,0-4.62-5.12c-.32-.26-.63-.46-.89-.64s-.48-.35-.67-.46l-.58-.34v0l.59.33c.2.1.41.27.68.44s.58.38.91.62a20,20,0,0,1,4.77,5,21.18,21.18,0,0,1,2.2,4.22c.15.4.3.81.45,1.22l.37,1.29c0,.11.06.22.09.33l.07.33.14.68.14.68.09.7a22.85,22.85,0,0,1-1.44,11.62c-.18.47-.4.92-.6,1.37-.11.22-.23.44-.34.67l-.17.33-.19.32a21.46,21.46,0,0,1-3.53,4.61,21.85,21.85,0,0,1-2.1,1.82,19.72,19.72,0,0,1-4.53,2.54,19,19,0,0,1-4.46,1.16c-.35.05-.7.07-1,.11l-.47,0-.44,0a3.58,3.58,0,0,0-.8.1l-.36.13c-.11.06-.23.11-.33.18a3.85,3.85,0,0,0-1,1,6.42,6.42,0,0,0-.63,1l-.11.24c0,.08-.08.17-.1.25s-.13.32-.17.47-.09.28-.13.41l-.09.35c-.06.21-.08.37-.11.48l0,.17L36.6,63Z"/><path class="cls-2" d="M44.22,61.75c-.33-.11-.7-.29-1.09-.45l-.3-.13-.07,0,0,0L42.63,61l-.37-.31-.2-.16-.17-.15a2.65,2.65,0,0,0-.37-.26,2.59,2.59,0,0,0-.75-.29,2.82,2.82,0,0,0-.59-.06H40a1.8,1.8,0,0,1,1.75-.72,5.06,5.06,0,0,1,.51.11l.5.16a10,10,0,0,1,1.19.38c1.71.65,2.91,1.59,3.21,2.82a8.37,8.37,0,0,1-3.26.6c-1.8,0-3.7-2.57-3.9-2.76l.21,0a2.7,2.7,0,0,1,.55,0,2.58,2.58,0,0,1,.35,0,2.51,2.51,0,0,1,.37.12l.18.08.18.11.17.12a1.92,1.92,0,0,0,.17.13l.39.27.18.13,0,0,0,0h0l.16.06c.42.14.83.29,1.17.38l.86.23.33.08L45,62Z"/><path class="cls-2" d="M53.5,17.64l.21.41.19.43.36.85a17.27,17.27,0,0,1,.6,1.7,4.81,4.81,0,0,1-.48-.43l-.44-.48A4.55,4.55,0,0,1,53.24,19,2.43,2.43,0,0,1,53,16.86a5.34,5.34,0,0,1,.66.38l.31.23c.1.08.19.18.28.27A4.74,4.74,0,0,1,55.17,19a2.22,2.22,0,0,1,0,2.05A21.89,21.89,0,0,0,53.5,17.64Z"/><path class="cls-2" d="M58,24.49c-.06-.34-.11-.69-.19-1l-.26-1a19.71,19.71,0,0,0-.65-2.06q.14.51.27,1c0,.17.09.33.12.5l.09.51a18.25,18.25,0,0,1,.28,2,9.43,9.43,0,0,1-.8-1.2,5.54,5.54,0,0,1-.3-.67,5.46,5.46,0,0,1-.24-.67,3.72,3.72,0,0,1-.15-1.41,1.8,1.8,0,0,1,.38-1,5,5,0,0,1,1.87,2.85,3.79,3.79,0,0,1,.09.69,2.71,2.71,0,0,1-.06.62A1.85,1.85,0,0,1,58,24.49Z"/><path class="cls-2" d="M51.83,18.33c0-.07-.11-.19-.2-.31L51,17.1l-.37-.5-.34-.41-.35-.4.3.41.3.42c.11.16.21.33.32.5l.56.94.18.3.06.12a4.69,4.69,0,0,1-.95-.6,4.12,4.12,0,0,1-.41-.39c-.13-.14-.26-.27-.37-.42a2.11,2.11,0,0,1-.48-1.9,4.65,4.65,0,0,1,1.22.56l.28.19.25.23a3.74,3.74,0,0,1,.42.51,2.41,2.41,0,0,1,.41.94,1.61,1.61,0,0,1-.08.84Z"/><path class="cls-2" d="M63.85,37.51a3.56,3.56,0,0,1-1,1.35,2,2,0,0,1-1.16.46c.22-.39.41-.79.61-1.2s.37-.83.55-1.26.31-.87.47-1.32l.23-.68c.06-.23.12-.46.18-.7l-.22.65c-.08.21-.18.43-.26.64q-.27.63-.54,1.22c-.19.4-.4.78-.6,1.16s-.44.74-.66,1.09a8.15,8.15,0,0,1,0-1,8.65,8.65,0,0,1,.11-1,8,8,0,0,1,.47-1.84l.19-.46q.1-.22.2-.41a3.91,3.91,0,0,1,.48-.69,2.17,2.17,0,0,1,1.17-.74A9.85,9.85,0,0,1,64.32,34c0,.2,0,.41.05.61a5.34,5.34,0,0,1,0,.61A6.3,6.3,0,0,1,63.85,37.51Z"/><path class="cls-2" d="M62.48,33.06a2,2,0,0,1-1,.7c.06-.2.11-.4.17-.61l.13-.61q.12-.62.24-1.26c.06-.42.1-.85.15-1.29l.07-.66c0-.22,0-.44,0-.67,0,.21,0,.42-.07.63l-.11.63q-.11.62-.23,1.22c-.09.4-.21.8-.31,1.18l-.17.57c-.06.19-.11.37-.18.56,0-.14-.06-.29-.1-.43s-.06-.29-.09-.44a7.34,7.34,0,0,1-.09-.89A7.51,7.51,0,0,1,61,30a8.44,8.44,0,0,1,.18-.88,3.69,3.69,0,0,1,.29-.73,2.05,2.05,0,0,1,.9-.93,6.44,6.44,0,0,1,.71,4.19A3.64,3.64,0,0,1,62.48,33.06Z"/><path class="cls-2" d="M60.21,28.75l0-.58c0-.19,0-.38,0-.57l0-1.17c0-.2,0-.4,0-.59l-.06-.59c0-.39-.09-.81-.16-1.2,0,.39,0,.78.06,1.16s0,.76,0,1.14,0,.76,0,1.13,0,.73-.09,1.09c-.11-.24-.23-.48-.33-.73a6.46,6.46,0,0,1-.26-.77c0-.13-.06-.27-.1-.4s-.07-.26-.09-.39a5.73,5.73,0,0,1-.11-.79A4.73,4.73,0,0,1,59.12,24a2,2,0,0,1,.63-1,7.62,7.62,0,0,1,.58.79,5.46,5.46,0,0,1,.44.89,7.06,7.06,0,0,1,.3.93,5,5,0,0,1,.1.95,3.34,3.34,0,0,1-.25,1.42A1.91,1.91,0,0,1,60.21,28.75Z"/><path class="cls-2" d="M37.17,24.51a5.68,5.68,0,0,1-3.23-.91l3.22,12.3L40.4,23.61A5.71,5.71,0,0,1,37.17,24.51Z"/><circle class="cls-2" cx="23.01" cy="42.84" r="1.17"/><circle class="cls-2" cx="26.34" cy="42.84" r="1.17"/><circle class="cls-2" cx="48.11" cy="42.84" r="1.17"/><circle class="cls-2" cx="51.44" cy="42.84" r="1.17"/><text class="cls-3" transform="translate(89.71 47.28)">Vlepy.pl</text></svg>